<svg viewBox="0 0 117 117" xmlns="http://www.w3.org/2000/svg"><g fill-rule="nonzero" fill="none"><path d="M82.6 88.4c.8.8 1.8 1.2 2.9 1.2 1.1 0 2.1-.4 2.9-1.2l27-27c.2-.2.4-.4.5-.6 0 0 .1-.1.1-.2.1-.2.2-.4.3-.5 0-.1 0-.2.1-.2.1-.2.1-.3.2-.5.1-.3.1-.5.1-.8 0-.3 0-.5-.1-.8 0-.2-.1-.4-.2-.5 0-.1 0-.2-.1-.2l-.3-.6s0-.1-.1-.1c-.1-.2-.3-.4-.5-.6l-27-27c-1.6-1.6-4.2-1.6-5.8 0-1.6 1.6-1.6 4.2 0 5.8l20 20H31.5c-2.3 0-4.1 1.8-4.1 4.1s1.8 4.1 4.1 4.1h71.1l-20 20c-1.6 1.4-1.6 4 0 5.6Z" fill="#dc2626" class="fill-17ab13"></path><path d="M4.5 116.5h54c2.3 0 4.1-1.8 4.1-4.1V72.1c0-2.3-1.8-4.1-4.1-4.1s-4.1 1.8-4.1 4.1v36.2H8.6V8.6h45.8v36.2c0 2.3 1.8 4.1 4.1 4.1s4.1-1.8 4.1-4.1V4.5c0-2.3-1.8-4.1-4.1-4.1h-54C2.2.4.4 2.2.4 4.5v107.9c.1 2.3 1.9 4.1 4.1 4.1Z" fill="#ffffff" class="fill-4a4a4a"></path></g></svg>